<svg width="261" height="112" viewBox="0 0 261 112" fill="none" xmlns="http://www.w3.org/2000/svg">
<g filter="url(#filter0_f_3901_92)">
<path d="M48.3241 21.5738L26.6138 59.6747C24.4825 63.4149 24.7968 68.0674 27.4117 71.487C29.4388 74.138 32.5854 75.693 35.9226 75.693H217.777C224.267 75.693 230.021 71.5188 232.036 65.349L234.794 56.902C236.688 51.1016 234.88 44.7319 230.22 40.792L202.729 17.546C200.021 15.2563 196.59 14 193.044 14H61.3568C55.9675 14 50.9923 16.8912 48.3241 21.5738Z" stroke="url(#paint0_linear_3901_92)" stroke-width="2"/>
</g>
<g filter="url(#filter1_d_3901_92)">
<path d="M48.3241 21.5738L26.6138 59.6747C24.4825 63.4149 24.7968 68.0674 27.4117 71.487C29.4388 74.138 32.5854 75.693 35.9226 75.693H217.777C224.267 75.693 230.021 71.5188 232.036 65.349L234.794 56.902C236.688 51.1016 234.88 44.7319 230.22 40.792L202.729 17.546C200.021 15.2563 196.59 14 193.044 14H61.3568C55.9675 14 50.9923 16.8912 48.3241 21.5738Z" fill="#1A0645"/>
<path d="M48.3241 21.5738L26.6138 59.6747C24.4825 63.4149 24.7968 68.0674 27.4117 71.487C29.4388 74.138 32.5854 75.693 35.9226 75.693H217.777C224.267 75.693 230.021 71.5188 232.036 65.349L234.794 56.902C236.688 51.1016 234.88 44.7319 230.22 40.792L202.729 17.546C200.021 15.2563 196.59 14 193.044 14H61.3568C55.9675 14 50.9923 16.8912 48.3241 21.5738Z" stroke="url(#paint1_linear_3901_92)" stroke-width="2"/>
</g>
<path d="M92.4485 53.5459C94.9765 53.5459 96.5765 51.7699 96.5765 49.3539V41.9459H93.3765V49.4819C93.3765 50.1219 93.0725 50.6819 92.3685 50.6819C91.8085 50.6819 91.4565 50.3139 91.3285 49.5939L88.2245 50.0419C88.6885 52.2179 90.2565 53.5459 92.4485 53.5459ZM104.067 53.6259C107.555 53.6259 110.227 51.0659 110.227 47.6099C110.227 44.0739 107.507 41.6259 104.099 41.6259C100.627 41.6259 97.9389 44.2019 97.9389 47.6419C97.9389 51.1619 100.675 53.6259 104.067 53.6259ZM101.251 47.6259C101.251 45.9299 102.371 44.5699 104.083 44.5699C105.843 44.5699 106.915 45.9779 106.915 47.6259C106.915 49.3219 105.795 50.6819 104.083 50.6819C102.323 50.6819 101.251 49.2739 101.251 47.6259ZM111.665 53.3059H114.865V41.9459H111.665V53.3059ZM116.618 41.9459V53.3059H119.658V46.6659L124.17 53.3059H126.89V41.9459H123.85V48.5859L119.338 41.9459H116.618ZM131.884 41.9459V53.3059H134.924V46.6659L139.436 53.3059H142.156V41.9459H139.116V48.5859L134.604 41.9459H131.884ZM149.723 53.6259C153.211 53.6259 155.883 51.0659 155.883 47.6099C155.883 44.0739 153.163 41.6259 149.755 41.6259C146.283 41.6259 143.595 44.2019 143.595 47.6419C143.595 51.1619 146.331 53.6259 149.723 53.6259ZM146.907 47.6259C146.907 45.9299 148.027 44.5699 149.739 44.5699C151.499 44.5699 152.571 45.9779 152.571 47.6259C152.571 49.3219 151.451 50.6819 149.739 50.6819C147.979 50.6819 146.907 49.2739 146.907 47.6259ZM156.123 41.9459L159.563 53.3059H162.475L164.315 46.0899L166.155 53.3059H169.035L172.475 41.9459H169.227L167.579 49.0339L165.771 41.9459H162.939L161.131 49.0339L159.483 41.9459H156.123Z" fill="white"/>
<defs>
<filter id="filter0_f_3901_92" x="17.2086" y="6" width="226.327" height="77.6931" filterUnits="userSpaceOnUse" color-interpolation-filters="sRGB">
<feFlood flood-opacity="0" result="BackgroundImageFix"/>
<feBlend mode="normal" in="SourceGraphic" in2="BackgroundImageFix" result="shape"/>
<feGaussianBlur stdDeviation="3.5" result="effect1_foregroundBlur_3901_92"/>
</filter>
<filter id="filter1_d_3901_92" x="0.208557" y="0" width="260.327" height="111.693" filterUnits="userSpaceOnUse" color-interpolation-filters="sRGB">
<feFlood flood-opacity="0" result="BackgroundImageFix"/>
<feColorMatrix in="SourceAlpha" type="matrix" values="0 0 0 0 0 0 0 0 0 0 0 0 0 0 0 0 0 0 127 0" result="hardAlpha"/>
<feOffset dy="11"/>
<feGaussianBlur stdDeviation="12"/>
<feComposite in2="hardAlpha" operator="out"/>
<feColorMatrix type="matrix" values="0 0 0 0 0 0 0 0 0 0 0 0 0 0 0 0 0 0 0.25 0"/>
<feBlend mode="normal" in2="BackgroundImageFix" result="effect1_dropShadow_3901_92"/>
<feBlend mode="normal" in="SourceGraphic" in2="effect1_dropShadow_3901_92" result="shape"/>
</filter>
<linearGradient id="paint0_linear_3901_92" x1="23.0977" y1="17.1843" x2="218.006" y2="97.0514" gradientUnits="userSpaceOnUse">
<stop offset="0.0516149" stop-color="#C327BC"/>
<stop offset="0.555208" stop-color="#333CF0"/>
<stop offset="1" stop-color="#00FAFE"/>
</linearGradient>
<linearGradient id="paint1_linear_3901_92" x1="23.0977" y1="17.1843" x2="218.006" y2="97.0514" gradientUnits="userSpaceOnUse">
<stop offset="0.0516149" stop-color="#C327BC"/>
<stop offset="0.555208" stop-color="#333CF0"/>
<stop offset="1" stop-color="#00FAFE"/>
</linearGradient>
</defs>
</svg>
